<svg width="10" height="16" viewBox="0 0 10 16" fill="none" xmlns="http://www.w3.org/2000/svg">
<path d="M9.48284 6.79994C10.1724 7.47114 10.1724 8.55937 9.48284 9.23057C8.7933 9.90176 7.67533 9.90176 6.98579 9.23056L0.517158 2.93402C-0.172384 2.26282 -0.172385 1.1746 0.517158 0.503398C1.2067 -0.1678 2.32467 -0.1678 3.01421 0.503398L9.48284 6.79994Z" fill="#C4C4C4"/>
<path d="M9.48284 9.20006C10.1724 8.52887 10.1724 7.44064 9.48284 6.76944C8.7933 6.09824 7.67533 6.09824 6.98579 6.76944L0.517159 13.066C-0.172383 13.7372 -0.172384 14.8254 0.517158 15.4966C1.2067 16.1678 2.32467 16.1678 3.01421 15.4966L9.48284 9.20006Z" fill="#C4C4C4"/>
</svg>
