<svg width="13" height="13" viewBox="0 0 13 13" fill="none" xmlns="http://www.w3.org/2000/svg">
<path d="M8.86482 0.656262C9.73983 -0.218753 11.1585 -0.218754 12.0335 0.65626C12.9085 1.53127 12.9085 2.94995 12.0335 3.82497L3.82497 12.0335C2.94995 12.9085 1.53128 12.9085 0.656261 12.0335C-0.218754 11.1585 -0.218753 9.73983 0.656261 8.86482L8.86482 0.656262Z" fill="#C4C4C4"/>
<path d="M4.03353 0.656262C3.15851 -0.218753 1.73983 -0.218754 0.864818 0.65626C-0.0101966 1.53127 -0.0101962 2.94995 0.864818 3.82497L9.07337 12.0335C9.94839 12.9085 11.3671 12.9085 12.2421 12.0335C13.1171 11.1585 13.1171 9.73983 12.2421 8.86482L4.03353 0.656262Z" fill="#C4C4C4"/>
</svg>
