<svg width="13" height="13" viewBox="0 0 13 13" fill="none" xmlns="http://www.w3.org/2000/svg">
<path d="M12.6827 11.1509L9.93264 8.4008C10.5009 7.54441 10.8334 6.51903 10.8334 5.41672C10.8334 2.42994 8.4035 0 5.41672 0C2.42994 0 0 2.42994 0 5.41672C0 8.4035 2.42994 10.8334 5.41672 10.8334C6.51903 10.8334 7.54441 10.5009 8.4008 9.93264L11.1509 12.6827C11.5734 13.1058 12.2602 13.1058 12.6827 12.6827C13.1058 12.2597 13.1058 11.5739 12.6827 11.1509ZM1.62502 5.41672C1.62502 3.32587 3.32587 1.62502 5.41672 1.62502C7.50758 1.62502 9.20843 3.32587 9.20843 5.41672C9.20843 7.50758 7.50758 9.20843 5.41672 9.20843C3.32587 9.20843 1.62502 7.50758 1.62502 5.41672Z" fill="#A0A0A0"/>
</svg>
